<?xml version="1.0" encoding="UTF-8" standalone="no"?>
<!-- Created with Inkscape (http://www.inkscape.org/) -->

<svg
   xmlns:dc="http://purl.org/dc/elements/1.1/"
   xmlns:cc="http://creativecommons.org/ns#"
   xmlns:rdf="http://www.w3.org/1999/02/22-rdf-syntax-ns#"
   xmlns:svg="http://www.w3.org/2000/svg"
   xmlns="http://www.w3.org/2000/svg"
   xmlns:sodipodi="http://sodipodi.sourceforge.net/DTD/sodipodi-0.dtd"
   xmlns:inkscape="http://www.inkscape.org/namespaces/inkscape"
   width="744.09448819"
   height="1052.3622047"
   id="svg2"
   sodipodi:version="0.32"
   inkscape:version="0.91 r13725"
   sodipodi:docname="icon.svg"
   inkscape:output_extension="org.inkscape.output.svg.inkscape"
   version="1.1">
  <defs
     id="defs4">
    <inkscape:perspective
       sodipodi:type="inkscape:persp3d"
       inkscape:vp_x="0 : 526.18109 : 1"
       inkscape:vp_y="0 : 1000 : 0"
       inkscape:vp_z="744.09448 : 526.18109 : 1"
       inkscape:persp3d-origin="372.04724 : 350.78739 : 1"
       id="perspective10" />
  </defs>
  <sodipodi:namedview
     id="base"
     pagecolor="#ffffff"
     bordercolor="#666666"
     borderopacity="1.0"
     gridtolerance="10000"
     guidetolerance="10"
     objecttolerance="10"
     inkscape:pageopacity="0.0"
     inkscape:pageshadow="2"
     inkscape:zoom="0.71410417"
     inkscape:cx="92.762164"
     inkscape:cy="239.16685"
     inkscape:document-units="px"
     inkscape:current-layer="layer1"
     showgrid="false"
     inkscape:window-width="1537"
     inkscape:window-height="877"
     inkscape:window-x="-8"
     inkscape:window-y="1072"
     inkscape:window-maximized="1">
    <inkscape:grid
       type="xygrid"
       id="grid2383" />
  </sodipodi:namedview>
  <metadata
     id="metadata7">
    <rdf:RDF>
      <cc:Work
         rdf:about="">
        <dc:format>image/svg+xml</dc:format>
        <dc:type
           rdf:resource="http://purl.org/dc/dcmitype/StillImage" />
        <dc:title />
      </cc:Work>
    </rdf:RDF>
  </metadata>
  <g
     inkscape:label="Layer 1"
     inkscape:groupmode="layer"
     id="layer1">
    <path
       sodipodi:type="arc"
       style="fill:#ff6600;fill-opacity:1;stroke:#d45500;stroke-width:4.48313332;stroke-linejoin:round;stroke-miterlimit:4;stroke-opacity:1;stroke-dasharray:none;stroke-dashoffset:0"
       id="path2388"
       sodipodi:cx="155"
       sodipodi:cy="167.36218"
       sodipodi:rx="65"
       sodipodi:ry="65"
       d="m 220,167.36218 a 65,65 0 1 1 -130,0 65,65 0 1 1 130,0 z"
       transform="matrix(2.3919499,0,0,2.3919499,-201.25124,-227.47091)"
       inkscape:export-filename="C:\web\azulite\mikan\mikan.png"
       inkscape:export-xdpi="17.909494"
       inkscape:export-ydpi="17.909494" />
    <path
       style="fill:#d45500;stroke:none"
       d="M 60.714286,281.64789 125,322.36218 l 60,5 55,-15 45,-35 30,-45 10,-50 -10,-66.42857 -29.28571,-47.857141 C 367.14286,210.21933 224.99458,327.64663 60.714286,281.64789 z"
       id="path3017"
       inkscape:connector-curvature="0"
       sodipodi:nodetypes="cccccccccc" />
    <path
       style="fill:#00ff00;fill-rule:evenodd;stroke:#008000;stroke-width:9.03986263;stroke-linecap:butt;stroke-linejoin:miter;stroke-miterlimit:4;stroke-opacity:1;stroke-dasharray:none"
       d="m 166.54816,48.852491 23.01826,23.076148 c 18.31883,0.613966 33.73562,2.227413 53.17249,10.703972 19.84394,13.722141 39.47368,32.801699 50.06854,58.048149 13.10585,45.01842 6.33086,92.55508 -23.71388,131.68142 -13.23143,-29.58295 -37.72732,-46.24895 -58.96158,-78.18717 -14.15617,-21.29215 -20.68137,-30.05758 -24.19147,-58.42782 -3.41343,-20.06106 -4.70026,-35.874445 -0.12287,-59.077925 l -22.83804,-23.97135 3.56855,-3.845424 z"
       id="path3154"
       sodipodi:nodetypes="cccccccccc"
       inkscape:export-filename="C:\web\azulite\mikan\mikan.png"
       inkscape:export-xdpi="17.909494"
       inkscape:export-ydpi="17.909494"
       inkscape:connector-curvature="0" />
    <rect
       style="fill:none;stroke:#000000;stroke-width:0.82057858;stroke-linejoin:round;stroke-miterlimit:4;stroke-opacity:1;stroke-dasharray:none;stroke-dashoffset:0"
       id="rect3158"
       width="320.02563"
       height="320.02563"
       x="340"
       y="12.362183" />
    <path
       sodipodi:type="arc"
       style="fill:#ffffff;fill-opacity:1;stroke:#ffffff;stroke-width:0.41925082;stroke-linejoin:round;stroke-miterlimit:4;stroke-opacity:1;stroke-dasharray:none;stroke-dashoffset:0"
       id="path3160"
       sodipodi:cx="155"
       sodipodi:cy="167.36218"
       sodipodi:rx="65"
       sodipodi:ry="65"
       d="m 220,167.36218 a 65,65 0 1 1 -130,0 65,65 0 1 1 130,0 z"
       transform="matrix(0.51367915,0,0,0.51367915,17.120904,11.816574)"
       inkscape:export-filename="C:\web\azulite\mikan\mikan.png"
       inkscape:export-xdpi="17.909494"
       inkscape:export-ydpi="17.909494" />
    <path
       style="fill:#d7f4d7;stroke:none"
       d="M 187.85714,74.147896 185,82.719324 c 45.37759,36.993136 70.77114,104.855196 85.71428,187.500006 -1.07599,-64.54491 -22.15769,-132.0031 -71.78571,-197.500006 z"
       id="path3124"
       inkscape:connector-curvature="0"
       sodipodi:nodetypes="ccccc" />
    <path
       style="fill:none;stroke:#008000;stroke-width:9.03986263;stroke-linecap:butt;stroke-linejoin:miter;stroke-miterlimit:4;stroke-opacity:1;stroke-dasharray:none"
       d="m 167.04445,48.821623 23.01826,23.076148 c 18.31883,0.613966 33.73562,2.227413 53.17249,10.703972 19.84393,13.722141 39.47367,32.801697 50.06853,58.048147 13.10585,45.01842 6.33086,92.55508 -23.71388,131.68142 -13.23142,-29.58295 -37.72731,-46.24895 -58.96157,-78.18717 -14.15617,-21.29215 -20.68137,-30.05758 -24.19147,-58.42782 -3.41343,-20.06106 -4.70026,-35.874443 -0.12287,-59.077923 l -22.83804,-23.97135 3.56855,-3.845424 z"
       id="path3154-1"
       sodipodi:nodetypes="cccccccccc"
       inkscape:export-filename="C:\web\azulite\mikan\mikan.png"
       inkscape:export-xdpi="17.909494"
       inkscape:export-ydpi="17.909494"
       inkscape:connector-curvature="0" />
    <path
       sodipodi:type="arc"
       style="fill:none;stroke:#d45500;stroke-width:4.48313332;stroke-linejoin:round;stroke-miterlimit:4;stroke-opacity:1;stroke-dasharray:none;stroke-dashoffset:0"
       id="path2388-9"
       sodipodi:cx="155"
       sodipodi:cy="167.36218"
       sodipodi:rx="65"
       sodipodi:ry="65"
       d="m 220,167.36218 a 65,65 0 1 1 -130,0 65,65 0 1 1 130,0 z"
       transform="matrix(2.3919499,0,0,2.3919499,-200.27549,-227.95977)"
       inkscape:export-filename="C:\web\azulite\mikan\mikan.png"
       inkscape:export-xdpi="41.972061"
       inkscape:export-ydpi="41.972061" />
    <path
       style="fill:#00ff00;fill-rule:evenodd;stroke:#008000;stroke-width:10.72343063;stroke-linecap:butt;stroke-linejoin:miter;stroke-miterlimit:4;stroke-opacity:1;stroke-dasharray:none"
       d="m 149.13948,33.446452 10.72343,10.723431 10.72343,-10.723431 0,10.723431 10.72343,0 -10.72343,10.723431 10.72343,10.723431 -10.72343,0 0,10.723431 -10.72343,-10.723431 -10.72343,10.723431 0,-10.723431 -10.72343,0 10.72343,-10.723431 -10.72343,-10.723431 10.72343,0 0,-10.723431 z"
       id="path3156"
       inkscape:export-filename="C:\web\azulite\mikan\mikan.png"
       inkscape:export-xdpi="17.909494"
       inkscape:export-ydpi="17.909494"
       inkscape:connector-curvature="0" />
    <path
       sodipodi:type="arc"
       style="fill:#00ff00;fill-opacity:1;stroke:#00ff00;stroke-width:130.00001526;stroke-linejoin:round;stroke-miterlimit:4;stroke-opacity:1;stroke-dasharray:none;stroke-dashoffset:0"
       id="path3179"
       sodipodi:cx="155"
       sodipodi:cy="167.36218"
       sodipodi:rx="65"
       sodipodi:ry="65"
       d="m 220,167.36218 a 65,65 0 1 1 -130,0 65,65 0 1 1 130,0 z"
       transform="matrix(0.08248792,0,0,0.08248792,148.14962,41.087958)"
       inkscape:export-filename="C:\web\azulite\mikan\mikan.png"
       inkscape:export-xdpi="17.909494"
       inkscape:export-ydpi="17.909494" />
    <path
       sodipodi:type="arc"
       style="fill:#ffffff;fill-opacity:1;stroke:#ffffff;stroke-width:0.41925082;stroke-linejoin:round;stroke-miterlimit:4;stroke-opacity:1;stroke-dasharray:none;stroke-dashoffset:0"
       id="path3160-3"
       sodipodi:cx="155"
       sodipodi:cy="167.36218"
       sodipodi:rx="65"
       sodipodi:ry="65"
       d="m 220,167.36218 a 65,65 0 1 1 -130,0 65,65 0 1 1 130,0 z"
       transform="matrix(0.25357145,0,0,0.25357145,26.410711,111.40606)"
       inkscape:export-filename="C:\web\azulite\mikan\mikan.png"
       inkscape:export-xdpi="17.909494"
       inkscape:export-ydpi="17.909494" />
    <path
       sodipodi:type="arc"
       style="fill:#ffffff;fill-opacity:1;stroke:#ffffff;stroke-width:0.41925082;stroke-linejoin:round;stroke-miterlimit:4;stroke-opacity:1;stroke-dasharray:none;stroke-dashoffset:0"
       id="path3160-8"
       sodipodi:cx="155"
       sodipodi:cy="167.36218"
       sodipodi:rx="65"
       sodipodi:ry="65"
       d="m 220,167.36218 a 65,65 0 1 1 -130,0 65,65 0 1 1 130,0 z"
       transform="matrix(0.10299341,0,0,0.10299341,39.036021,178.43041)"
       inkscape:export-filename="C:\web\azulite\mikan\mikan.png"
       inkscape:export-xdpi="17.909494"
       inkscape:export-ydpi="17.909494" />
    <path
       style="fill:#000000;fill-rule:evenodd;stroke:#000000;stroke-width:1px;stroke-linecap:butt;stroke-linejoin:miter;stroke-opacity:1"
       d="m 20,322.36218 0,-60 70,0 0,60 -10,0 0,-50 -20,0 0,50 -10,0 0,-50 -20,0 0,50 -10,0"
       id="path3162"
       sodipodi:nodetypes="ccccccccccccc"
       inkscape:export-filename="C:\web\azulite\mikan\mikan.png"
       inkscape:export-xdpi="17.909494"
       inkscape:export-ydpi="17.909494"
       inkscape:connector-curvature="0" />
    <path
       style="fill:#000000;fill-rule:evenodd;stroke:#000000;stroke-width:1px;stroke-linecap:butt;stroke-linejoin:miter;stroke-opacity:1"
       d="m 100,282.36218 0,40 10,0 0,-40 -10,0 z"
       id="path3167"
       sodipodi:nodetypes="ccccc"
       inkscape:export-filename="C:\web\azulite\mikan\mikan.png"
       inkscape:export-xdpi="17.909494"
       inkscape:export-ydpi="17.909494"
       inkscape:connector-curvature="0" />
    <path
       style="fill:#000000;fill-rule:evenodd;stroke:#000000;stroke-width:1px;stroke-linecap:butt;stroke-linejoin:miter;stroke-opacity:1"
       d="m 100,262.36218 0,10 10,0 0,-10 -10,0 z"
       id="path3169"
       inkscape:export-filename="C:\web\azulite\mikan\mikan.png"
       inkscape:export-xdpi="17.909494"
       inkscape:export-ydpi="17.909494"
       inkscape:connector-curvature="0" />
    <path
       style="fill:#000000;fill-rule:evenodd;stroke:#000000;stroke-width:1px;stroke-linecap:butt;stroke-linejoin:miter;stroke-opacity:1"
       d="m 120,262.36218 0,60 10,0 0,-30 10,0 0,30 30,0 0,-10 -20,0 0,-20 20,0 0,-10 -40,0 0,-20 -10,0 z"
       id="path3171"
       sodipodi:nodetypes="ccccccccccccccc"
       inkscape:export-filename="C:\web\azulite\mikan\mikan.png"
       inkscape:export-xdpi="17.909494"
       inkscape:export-ydpi="17.909494"
       inkscape:connector-curvature="0" />
    <path
       style="fill:#000000;fill-rule:evenodd;stroke:#000000;stroke-width:1px;stroke-linecap:butt;stroke-linejoin:miter;stroke-opacity:1"
       d="m 210,312.36218 0,10 -30,0 0,-40 50,0 0,30 10,0 0,10 -20,0 0,-30 -30,0 0,20 20,0 z"
       id="path3175"
       inkscape:export-filename="C:\web\azulite\mikan\mikan.png"
       inkscape:export-xdpi="17.909494"
       inkscape:export-ydpi="17.909494"
       inkscape:connector-curvature="0" />
    <path
       style="fill:#000000;fill-rule:evenodd;stroke:#000000;stroke-width:1px;stroke-linecap:butt;stroke-linejoin:miter;stroke-opacity:1"
       d="m 250,282.36218 0,40 10,0 0,-30 30,0 0,30 10,0 0,-40 -50,0 z"
       id="path3177"
       inkscape:export-filename="C:\web\azulite\mikan\mikan.png"
       inkscape:export-xdpi="17.909494"
       inkscape:export-ydpi="17.909494"
       inkscape:connector-curvature="0" />
    <path
       sodipodi:type="arc"
       style="fill:#ff6600;fill-opacity:1;stroke:#d45500;stroke-width:4.48313332;stroke-linejoin:round;stroke-miterlimit:4;stroke-opacity:1;stroke-dasharray:none;stroke-dashoffset:0"
       id="path2388-7"
       sodipodi:cx="155"
       sodipodi:cy="167.36218"
       sodipodi:rx="65"
       sodipodi:ry="65"
       d="m 220,167.36218 a 65,65 0 1 1 -130,0 65,65 0 1 1 130,0 z"
       transform="matrix(2.3919499,0,0,2.3919499,-184.4544,120.1418)"
       inkscape:export-filename="C:\web\azulite\mikan\mikan.png"
       inkscape:export-xdpi="17.909494"
       inkscape:export-ydpi="17.909494" />
    <path
       style="fill:#00ff00;fill-rule:evenodd;stroke:#008000;stroke-width:10.72343063;stroke-linecap:butt;stroke-linejoin:miter;stroke-miterlimit:4;stroke-opacity:1;stroke-dasharray:none"
       d="m 165.93632,381.05917 10.72343,10.72343 10.72343,-10.72343 0,10.72343 10.72343,0 -10.72343,10.72343 10.72343,10.72343 -10.72343,0 0,10.72343 -10.72343,-10.72343 -10.72343,10.72343 0,-10.72343 -10.72342,0 10.72342,-10.72343 -10.72342,-10.72343 10.72342,0 0,-10.72343 z"
       id="path3156-6"
       inkscape:export-filename="C:\web\azulite\mikan\mikan.png"
       inkscape:export-xdpi="17.909494"
       inkscape:export-ydpi="17.909494"
       inkscape:connector-curvature="0" />
    <path
       style="fill:#d45500;stroke:none"
       d="m 77.511135,629.2606 64.285715,40.71429 59.99999,5 55,-15 45,-35 30,-45 10,-50 -10,-66.42857 -29.28571,-47.85713 C 383.9397,557.83204 241.79142,675.25934 77.511135,629.2606 z"
       id="path3017-1"
       inkscape:connector-curvature="0"
       sodipodi:nodetypes="cccccccccc" />
    <path
       style="fill:#00ff00;fill-rule:evenodd;stroke:#008000;stroke-width:9.03986263;stroke-linecap:butt;stroke-linejoin:miter;stroke-miterlimit:4;stroke-opacity:1;stroke-dasharray:none"
       d="m 183.345,396.46521 23.01826,23.07615 c 18.31883,0.61396 33.73562,2.22741 53.17249,10.70397 19.84394,13.72214 39.47368,32.80169 50.06854,58.04814 13.10585,45.01842 6.33086,92.55508 -23.71388,131.68142 -13.23143,-29.58295 -37.72732,-46.24895 -58.96158,-78.18717 -14.15617,-21.29215 -20.68137,-30.05758 -24.19147,-58.42782 -3.41343,-20.06106 -4.70026,-35.87444 -0.12287,-59.07792 l -22.83804,-23.97135 3.56855,-3.84542 z"
       id="path3154-4"
       sodipodi:nodetypes="cccccccccc"
       inkscape:export-filename="C:\web\azulite\mikan\mikan.png"
       inkscape:export-xdpi="17.909494"
       inkscape:export-ydpi="17.909494"
       inkscape:connector-curvature="0" />
    <path
       sodipodi:type="arc"
       style="fill:#ffffff;fill-opacity:1;stroke:#ffffff;stroke-width:0.41925082;stroke-linejoin:round;stroke-miterlimit:4;stroke-opacity:1;stroke-dasharray:none;stroke-dashoffset:0"
       id="path3160-2"
       sodipodi:cx="155"
       sodipodi:cy="167.36218"
       sodipodi:rx="65"
       sodipodi:ry="65"
       d="m 220,167.36218 a 65,65 0 1 1 -130,0 65,65 0 1 1 130,0 z"
       transform="matrix(0.51367915,0,0,0.51367915,33.917753,359.42929)"
       inkscape:export-filename="C:\web\azulite\mikan\mikan.png"
       inkscape:export-xdpi="17.909494"
       inkscape:export-ydpi="17.909494" />
    <path
       style="fill:none;stroke:#b3ff80;stroke-width:9.03986263;stroke-linecap:round;stroke-linejoin:miter;stroke-miterlimit:4;stroke-opacity:1;stroke-dasharray:none;marker-start:none"
       d="m 205.71732,422.16013 c 40.74241,26.64413 75.80194,113.09139 80.6732,188.84936"
       id="path3181-3"
       sodipodi:nodetypes="cc"
       inkscape:export-filename="C:\web\azulite\mikan\mikan.png"
       inkscape:export-xdpi="17.909494"
       inkscape:export-ydpi="17.909494"
       inkscape:connector-curvature="0" />
    <path
       style="fill:none;stroke:#008000;stroke-width:9.03986263;stroke-linecap:butt;stroke-linejoin:miter;stroke-miterlimit:4;stroke-opacity:1;stroke-dasharray:none"
       d="m 183.84129,396.43434 23.01826,23.07615 c 18.31883,0.61396 33.73562,2.22741 53.17249,10.70397 19.84393,13.72214 39.47367,32.80169 50.06853,58.04814 13.10585,45.01842 6.33086,92.55508 -23.71388,131.68142 -13.23142,-29.58295 -37.72731,-46.24895 -58.96157,-78.18717 -14.15617,-21.29215 -20.68137,-30.05758 -24.19147,-58.42782 -3.41343,-20.06106 -4.70026,-35.87444 -0.12287,-59.07792 l -22.83804,-23.97135 3.56855,-3.84542 z"
       id="path3154-1-2"
       sodipodi:nodetypes="cccccccccc"
       inkscape:export-filename="C:\web\azulite\mikan\mikan.png"
       inkscape:export-xdpi="17.909494"
       inkscape:export-ydpi="17.909494"
       inkscape:connector-curvature="0" />
    <path
       sodipodi:type="arc"
       style="fill:#00ff00;fill-opacity:1;stroke:#00ff00;stroke-width:130.00001526;stroke-linejoin:round;stroke-miterlimit:4;stroke-opacity:1;stroke-dasharray:none;stroke-dashoffset:0"
       id="path3179-2"
       sodipodi:cx="155"
       sodipodi:cy="167.36218"
       sodipodi:rx="65"
       sodipodi:ry="65"
       d="m 220,167.36218 a 65,65 0 1 1 -130,0 65,65 0 1 1 130,0 z"
       transform="matrix(0.08248792,0,0,0.08248792,164.94646,388.70067)"
       inkscape:export-filename="C:\web\azulite\mikan\mikan.png"
       inkscape:export-xdpi="17.909494"
       inkscape:export-ydpi="17.909494" />
    <path
       sodipodi:type="arc"
       style="fill:none;stroke:#d45500;stroke-width:4.48313332;stroke-linejoin:round;stroke-miterlimit:4;stroke-opacity:1;stroke-dasharray:none;stroke-dashoffset:0"
       id="path2388-9-1"
       sodipodi:cx="155"
       sodipodi:cy="167.36218"
       sodipodi:rx="65"
       sodipodi:ry="65"
       d="m 220,167.36218 a 65,65 0 1 1 -130,0 65,65 0 1 1 130,0 z"
       transform="matrix(2.3919499,0,0,2.3919499,-183.47865,119.65294)"
       inkscape:export-filename="C:\web\azulite\mikan\mikan.png"
       inkscape:export-xdpi="17.909494"
       inkscape:export-ydpi="17.909494" />
    <path
       sodipodi:type="arc"
       style="fill:#ffffff;fill-opacity:1;stroke:#ffffff;stroke-width:0.41925082;stroke-linejoin:round;stroke-miterlimit:4;stroke-opacity:1;stroke-dasharray:none;stroke-dashoffset:0"
       id="path3160-3-6"
       sodipodi:cx="155"
       sodipodi:cy="167.36218"
       sodipodi:rx="65"
       sodipodi:ry="65"
       d="m 220,167.36218 a 65,65 0 1 1 -130,0 65,65 0 1 1 130,0 z"
       transform="matrix(0.25357145,0,0,0.25357145,43.20756,459.01878)"
       inkscape:export-filename="C:\web\azulite\mikan\mikan.png"
       inkscape:export-xdpi="17.909494"
       inkscape:export-ydpi="17.909494" />
    <path
       sodipodi:type="arc"
       style="fill:#ffffff;fill-opacity:1;stroke:#ffffff;stroke-width:0.41925082;stroke-linejoin:round;stroke-miterlimit:4;stroke-opacity:1;stroke-dasharray:none;stroke-dashoffset:0"
       id="path3160-8-8"
       sodipodi:cx="155"
       sodipodi:cy="167.36218"
       sodipodi:rx="65"
       sodipodi:ry="65"
       d="m 220,167.36218 a 65,65 0 1 1 -130,0 65,65 0 1 1 130,0 z"
       transform="matrix(0.10299341,0,0,0.10299341,55.83287,526.04312)"
       inkscape:export-filename="C:\web\azulite\mikan\mikan.png"
       inkscape:export-xdpi="17.909494"
       inkscape:export-ydpi="17.909494" />
    <path
       style="fill:#000000;fill-rule:evenodd;stroke:#000000;stroke-width:1px;stroke-linecap:butt;stroke-linejoin:miter;stroke-opacity:1"
       d="m 36.796849,669.97489 0,-60 70.000001,0 0,60 -10.000001,0 0,-50 -20,0 0,50 -10,0 0,-50 -20,0 0,50 -10,0"
       id="path3162-5"
       sodipodi:nodetypes="ccccccccccccc"
       inkscape:export-filename="C:\web\azulite\mikan\mikan.png"
       inkscape:export-xdpi="17.909494"
       inkscape:export-ydpi="17.909494"
       inkscape:connector-curvature="0" />
    <path
       style="fill:#000000;fill-rule:evenodd;stroke:#000000;stroke-width:1px;stroke-linecap:butt;stroke-linejoin:miter;stroke-opacity:1"
       d="m 116.79685,629.97489 0,40 10,0 0,-40 -10,0 z"
       id="path3167-7"
       sodipodi:nodetypes="ccccc"
       inkscape:export-filename="C:\web\azulite\mikan\mikan.png"
       inkscape:export-xdpi="17.909494"
       inkscape:export-ydpi="17.909494"
       inkscape:connector-curvature="0" />
    <path
       style="fill:#000000;fill-rule:evenodd;stroke:#000000;stroke-width:1px;stroke-linecap:butt;stroke-linejoin:miter;stroke-opacity:1"
       d="m 116.79685,609.97489 0,10 10,0 0,-10 -10,0 z"
       id="path3169-6"
       inkscape:export-filename="C:\web\azulite\mikan\mikan.png"
       inkscape:export-xdpi="17.909494"
       inkscape:export-ydpi="17.909494"
       inkscape:connector-curvature="0" />
    <path
       style="fill:#000000;fill-rule:evenodd;stroke:#000000;stroke-width:1px;stroke-linecap:butt;stroke-linejoin:miter;stroke-opacity:1"
       d="m 136.79685,609.97489 0,60 10,0 0,-30 10,0 0,30 29.99999,0 0,-10 -20,0 0,-20 20,0 0,-10 -39.99999,0 0,-20 -10,0 z"
       id="path3171-1"
       sodipodi:nodetypes="ccccccccccccccc"
       inkscape:export-filename="C:\web\azulite\mikan\mikan.png"
       inkscape:export-xdpi="17.909494"
       inkscape:export-ydpi="17.909494"
       inkscape:connector-curvature="0" />
    <path
       style="fill:#000000;fill-rule:evenodd;stroke:#000000;stroke-width:1px;stroke-linecap:butt;stroke-linejoin:miter;stroke-opacity:1"
       d="m 226.79684,659.97489 0,10 -30,0 0,-40 50,0 0,30 10,0 0,10 -20,0 0,-30 -30,0 0,20 20,0 z"
       id="path3175-8"
       inkscape:export-filename="C:\web\azulite\mikan\mikan.png"
       inkscape:export-xdpi="17.909494"
       inkscape:export-ydpi="17.909494"
       inkscape:connector-curvature="0" />
    <path
       style="fill:#000000;fill-rule:evenodd;stroke:#000000;stroke-width:1px;stroke-linecap:butt;stroke-linejoin:miter;stroke-opacity:1"
       d="m 266.79684,629.97489 0,40 10,0 0,-30 30,0 0,30 10,0 0,-40 -50,0 z"
       id="path3177-9"
       inkscape:export-filename="C:\web\azulite\mikan\mikan.png"
       inkscape:export-xdpi="17.909494"
       inkscape:export-ydpi="17.909494"
       inkscape:connector-curvature="0" />
    <path
       sodipodi:type="arc"
       style="fill:#f2881c;fill-opacity:1;stroke:none;stroke-width:4.48313332;stroke-linejoin:round;stroke-miterlimit:4;stroke-opacity:1;stroke-dasharray:none;stroke-dashoffset:0"
       id="path2388-5"
       sodipodi:cx="155"
       sodipodi:cy="167.36218"
       sodipodi:rx="65"
       sodipodi:ry="65"
       d="m 220,167.36218 a 65,65 0 1 1 -130,0 65,65 0 1 1 130,0 z"
       transform="matrix(2.3919499,0,0,2.3919499,158.5175,101.73283)"
       inkscape:export-filename="C:\web\azulite\mikan\mikan.png"
       inkscape:export-xdpi="17.909494"
       inkscape:export-ydpi="17.909494" />
    <path
       style="fill:#d45500;stroke:none"
       d="M 530.24609 340.72852 C 441.48098 340.72852 369.40625 412.79933 369.40625 501.56445 C 369.40625 590.32956 441.48098 662.4043 530.24609 662.4043 C 619.01121 662.4043 691.08594 590.32956 691.08594 501.56445 C 691.08594 412.79933 619.01121 340.72852 530.24609 340.72852 z M 530.24609 351.45117 C 583.87922 351.45117 630.8898 379.51224 657.43555 421.76367 C 709.23134 549.8217 580.69523 649.98073 429.99414 613.33203 C 399.38113 585.85811 380.13281 545.98229 380.13281 501.56445 C 380.13281 418.59469 447.27634 351.45117 530.24609 351.45117 z "
       id="path3017-4"
       inkscape:export-filename="icon.png"
       inkscape:export-xdpi="111.91257"
       inkscape:export-ydpi="111.91257" />
    <path
       style="fill:#72d108;fill-rule:evenodd;stroke:none;stroke-width:9.03986263;stroke-linecap:butt;stroke-linejoin:miter;stroke-miterlimit:4;stroke-opacity:1;stroke-dasharray:none;fill-opacity:1"
       d="M 520.70312 373.37305 C 514.84425 373.37305 509.98047 378.23878 509.98047 384.09766 C 509.98047 389.95654 514.84425 394.82031 520.70312 394.82031 C 524.61472 394.82031 528.07578 392.64582 529.94922 389.46094 L 545.58594 405.87305 C 541.00855 429.07653 542.29555 444.89011 545.70898 464.95117 C 549.21908 493.32141 555.74422 502.08676 569.90039 523.37891 C 591.13465 555.31713 615.63185 571.98346 628.86328 601.56641 C 658.90802 562.44007 665.68202 514.90319 652.57617 469.88477 C 641.98131 444.63832 622.35175 425.55809 602.50781 411.83594 C 583.07094 403.35939 567.65477 401.74678 549.33594 401.13281 L 531.37695 383.13086 C 530.87703 377.71381 526.23599 373.37305 520.70312 373.37305 z "
       id="path3154-19" />
    <path
       sodipodi:type="arc"
       style="fill:#fbf6de;fill-opacity:1;stroke:#ffffff;stroke-width:0.41925082;stroke-linejoin:round;stroke-miterlimit:4;stroke-opacity:1;stroke-dasharray:none;stroke-dashoffset:0"
       id="path3160-1"
       sodipodi:cx="155"
       sodipodi:cy="167.36218"
       sodipodi:rx="65"
       sodipodi:ry="65"
       d="m 220,167.36218 a 65,65 0 1 1 -130,0 65,65 0 1 1 130,0 z"
       transform="matrix(0.51367915,0,0,0.51367915,376.88965,341.02032)"
       inkscape:export-filename="C:\web\azulite\mikan\mikan.png"
       inkscape:export-xdpi="17.909494"
       inkscape:export-ydpi="17.909494" />
    <path
       style="fill:#d7f4d7;stroke:none"
       d="m 547.62588,403.35164 -2.85714,8.57143 c 45.37759,36.99313 70.77114,104.85519 85.71428,187.5 -1.07599,-64.54491 -22.15769,-132.0031 -71.78571,-197.5 z"
       id="path3124-9"
       inkscape:connector-curvature="0"
       sodipodi:nodetypes="ccccc" />
    <path
       style="color:#000000;font-style:normal;font-variant:normal;font-weight:normal;font-stretch:normal;font-size:medium;line-height:normal;font-family:sans-serif;text-indent:0;text-align:start;text-decoration:none;text-decoration-line:none;text-decoration-style:solid;text-decoration-color:#000000;letter-spacing:normal;word-spacing:normal;text-transform:none;direction:ltr;block-progression:tb;writing-mode:lr-tb;baseline-shift:baseline;text-anchor:start;white-space:normal;clip-rule:nonzero;display:inline;overflow:visible;visibility:visible;opacity:1;isolation:auto;mix-blend-mode:normal;color-interpolation:sRGB;color-interpolation-filters:linearRGB;solid-color:#000000;solid-opacity:1;fill:#008000;fill-opacity:1;fill-rule:nonzero;stroke:none;stroke-width:9.03986263;stroke-linecap:butt;stroke-linejoin:miter;stroke-miterlimit:4;stroke-dasharray:none;stroke-dashoffset:0;stroke-opacity:1;color-rendering:auto;image-rendering:auto;shape-rendering:auto;text-rendering:auto;enable-background:accumulate"
       d="M 503.54688 349.70508 L 503.54688 368.01172 L 485.24023 368.01172 L 501.32617 384.09766 L 485.24023 400.18164 L 503.54688 400.18164 L 503.54688 418.48828 L 519.63281 402.40234 L 535.7168 418.48828 L 535.7168 401.51367 L 541.29492 407.36914 C 537.20831 429.7002 538.4232 446.0358 541.7207 465.47461 C 545.30069 494.4097 552.51454 504.61446 566.63281 525.84961 C 588.35303 558.51875 612.59159 575.11834 625.23242 603.38086 L 628.32812 610.29883 L 632.94336 604.28711 C 663.86526 564.01847 670.8735 514.82955 657.41211 468.58984 L 657.33984 468.3418 L 657.24023 468.10547 C 646.18894 441.77139 625.88333 422.1317 605.57422 408.08789 L 605.21289 407.83789 L 604.81055 407.66211 C 585.43962 399.21431 569.54773 397.36452 551.81055 396.6875 L 538.5957 383.43945 L 554.02344 368.01172 L 535.7168 368.01172 L 535.7168 349.70508 L 519.63281 365.78906 L 503.54688 349.70508 z M 520.70312 373.37305 C 526.562 373.37305 531.42773 378.23878 531.42773 384.09766 C 531.42773 389.95654 526.562 394.82031 520.70312 394.82031 C 514.84425 394.82031 509.98047 389.95654 509.98047 384.09766 C 509.98047 378.23878 514.84425 373.37305 520.70312 373.37305 z M 550.72266 405.67578 C 568.22581 406.30432 582.54483 407.91243 600.79102 415.79883 C 619.97765 429.13363 638.69119 447.47674 648.79102 471.36523 C 660.80203 512.86637 655.46365 556.20854 629.99609 592.92969 C 615.76644 566.26085 593.31181 549.6515 574.16016 520.8457 C 559.96609 499.49655 554.13162 492.17062 550.69141 464.36523 L 550.67773 464.26367 L 550.66211 464.16211 C 547.28306 444.30308 546.04679 429.3799 550.51758 406.7168 L 550.72266 405.67578 z "
       id="path3154-1-23" />
    <path
       sodipodi:type="arc"
       style="fill:#fbf6de;fill-opacity:1;stroke:#ffffff;stroke-width:0.41925082;stroke-linejoin:round;stroke-miterlimit:4;stroke-opacity:1;stroke-dasharray:none;stroke-dashoffset:0"
       id="path3160-3-1"
       sodipodi:cx="155"
       sodipodi:cy="167.36218"
       sodipodi:rx="65"
       sodipodi:ry="65"
       d="m 220,167.36218 a 65,65 0 1 1 -130,0 65,65 0 1 1 130,0 z"
       transform="matrix(0.25357145,0,0,0.25357145,386.17945,440.6098)"
       inkscape:export-filename="C:\web\azulite\mikan\mikan.png"
       inkscape:export-xdpi="17.909494"
       inkscape:export-ydpi="17.909494" />
    <path
       sodipodi:type="arc"
       style="fill:#fbf6de;fill-opacity:1;stroke:#ffffff;stroke-width:0.41925082;stroke-linejoin:round;stroke-miterlimit:4;stroke-opacity:1;stroke-dasharray:none;stroke-dashoffset:0"
       id="path3160-8-7"
       sodipodi:cx="155"
       sodipodi:cy="167.36218"
       sodipodi:rx="65"
       sodipodi:ry="65"
       d="m 220,167.36218 a 65,65 0 1 1 -130,0 65,65 0 1 1 130,0 z"
       transform="matrix(0.10299341,0,0,0.10299341,398.80476,507.63415)"
       inkscape:export-filename="C:\web\azulite\mikan\mikan.png"
       inkscape:export-xdpi="17.909494"
       inkscape:export-ydpi="17.909494" />
  </g>
</svg>
